<svg width="210" height="42" viewBox="0 0 210 42" fill="none" xmlns="http://www.w3.org/2000/svg">
<path d="M53.634 28.5001V27.1981L54.663 27.0301C54.929 26.9881 55.104 26.9041 55.188 26.7781C55.272 26.6381 55.314 26.3651 55.314 25.9591V16.2151C55.314 15.8651 55.265 15.6271 55.167 15.5011C55.083 15.3611 54.901 15.2701 54.621 15.2281L53.634 15.0811V13.7791H64.26L64.974 17.7901L63.462 18.1261C63.266 17.5381 63.077 17.0551 62.895 16.6771C62.713 16.2991 62.51 16.0051 62.286 15.7951C62.062 15.5851 61.789 15.4451 61.467 15.3751C61.159 15.3051 60.767 15.2701 60.291 15.2701H58.254V20.6671H59.703C60.137 20.6671 60.452 20.6391 60.648 20.5831C60.858 20.5131 61.012 20.3591 61.11 20.1211C61.208 19.8831 61.306 19.5191 61.404 19.0291L62.643 18.9031V24.0481L61.404 24.2581C61.32 23.6561 61.222 23.2151 61.11 22.9351C61.012 22.6411 60.851 22.4521 60.627 22.3681C60.417 22.2841 60.095 22.2421 59.661 22.2421H58.254V25.9591C58.254 26.3371 58.296 26.6031 58.38 26.7571C58.478 26.9111 58.702 27.0021 59.052 27.0301L60.522 27.1981V28.5001H53.634Z" fill="white"/>
<path d="M71.8622 28.7941C70.7282 28.7941 69.7552 28.5771 68.9432 28.1431C68.1312 27.7091 67.5082 27.0931 67.0742 26.2951C66.6402 25.4831 66.4232 24.5031 66.4232 23.3551C66.4232 22.0951 66.6612 21.0311 67.1372 20.1631C67.6132 19.2811 68.2852 18.6161 69.1532 18.1681C70.0212 17.7201 71.0432 17.4961 72.2192 17.4961C73.2832 17.4961 74.2072 17.7061 74.9912 18.1261C75.7892 18.5321 76.4052 19.1341 76.8392 19.9321C77.2872 20.7301 77.5112 21.7171 77.5112 22.8931C77.5112 24.1111 77.2802 25.1681 76.8182 26.0641C76.3702 26.9461 75.7262 27.6251 74.8862 28.1011C74.0462 28.5631 73.0382 28.7941 71.8622 28.7941ZM72.1562 27.1771C72.7022 27.1771 73.1502 27.0371 73.5002 26.7571C73.8502 26.4771 74.1092 26.0501 74.2772 25.4761C74.4592 24.8881 74.5502 24.1811 74.5502 23.3551C74.5502 22.6271 74.4872 21.9971 74.3612 21.4651C74.2352 20.9191 74.0532 20.4711 73.8152 20.1211C73.5912 19.7571 73.3112 19.4911 72.9752 19.3231C72.6532 19.1411 72.2892 19.0501 71.8832 19.0501C71.3512 19.0501 70.9032 19.1831 70.5392 19.4491C70.1752 19.7011 69.8952 20.1001 69.6992 20.6461C69.5032 21.1781 69.4052 21.8641 69.4052 22.7041C69.4052 23.6701 69.5102 24.4891 69.7202 25.1611C69.9302 25.8191 70.2382 26.3231 70.6442 26.6731C71.0502 27.0091 71.5542 27.1771 72.1562 27.1771Z" fill="white"/>
<path d="M80.023 28.5001V27.2191L80.926 27.0511C81.15 27.0091 81.297 26.9251 81.367 26.7991C81.437 26.6591 81.472 26.4071 81.472 26.0431V20.6671C81.472 20.1911 81.43 19.8691 81.346 19.7011C81.276 19.5191 81.087 19.4071 80.779 19.3651L79.834 19.2181L80.002 17.8741L83.467 17.6431L83.782 17.8111L83.971 19.7221H84.055C84.419 19.0221 84.881 18.4761 85.441 18.0841C86.001 17.6921 86.617 17.4961 87.289 17.4961C88.003 17.4961 88.57 17.6921 88.99 18.0841C89.424 18.4761 89.641 19.0081 89.641 19.6801C89.641 20.0861 89.578 20.4361 89.452 20.7301C89.326 21.0101 89.137 21.2271 88.885 21.3811C88.633 21.5211 88.332 21.5911 87.982 21.5911C87.506 21.5911 87.149 21.5001 86.911 21.3181C86.673 21.1221 86.554 20.8771 86.554 20.5831C86.554 20.4571 86.568 20.3451 86.596 20.2471C86.624 20.1351 86.666 20.0091 86.722 19.8691C86.778 19.7151 86.855 19.5401 86.953 19.3441C86.645 19.2041 86.33 19.1831 86.008 19.2811C85.7 19.3791 85.413 19.5681 85.147 19.8481C84.881 20.1141 84.664 20.4431 84.496 20.8351C84.342 21.2271 84.265 21.6611 84.265 22.1371V26.0851C84.265 26.4211 84.293 26.6521 84.349 26.7781C84.419 26.9041 84.573 26.9811 84.811 27.0091L86.47 27.2401V28.5001H80.023Z" fill="white"/>
<path d="M96.1021 33.3301C95.2481 33.3301 94.4991 33.2741 93.8551 33.1621C93.2251 33.0501 92.7001 32.8821 92.2801 32.6581C91.8741 32.4341 91.5661 32.1541 91.3561 31.8181C91.1461 31.4961 91.0411 31.1111 91.0411 30.6631C91.0411 30.2571 91.1251 29.9071 91.2931 29.6131C91.4751 29.3191 91.7271 29.0601 92.0491 28.8361C92.3711 28.6261 92.7491 28.4371 93.1831 28.2691V28.2061C92.7351 28.0661 92.3921 27.8351 92.1541 27.5131C91.9161 27.1911 91.7971 26.8551 91.7971 26.5051C91.7971 26.1271 91.8951 25.7841 92.0911 25.4761C92.2871 25.1541 92.6231 24.7691 93.0991 24.3211V24.2581C92.5951 23.9781 92.2031 23.6001 91.9231 23.1241C91.6571 22.6341 91.5241 22.0461 91.5241 21.3601C91.5241 20.5201 91.7271 19.8131 92.1331 19.2391C92.5531 18.6651 93.1201 18.2311 93.8341 17.9371C94.5621 17.6431 95.3881 17.4961 96.3121 17.4961C96.6061 17.4961 96.9141 17.5171 97.2361 17.5591C97.5581 17.6011 97.8801 17.6711 98.2021 17.7691C98.5381 17.8531 98.8391 17.9721 99.1051 18.1261C99.4131 17.4121 99.7631 16.8591 100.155 16.4671C100.561 16.0611 101.023 15.8581 101.541 15.8581C101.821 15.8581 102.073 15.9071 102.297 16.0051C102.521 16.1031 102.696 16.2501 102.822 16.4461C102.962 16.6281 103.032 16.8591 103.032 17.1391C103.032 17.4891 102.906 17.8041 102.654 18.0841C102.416 18.3501 102.122 18.4831 101.772 18.4831C101.576 18.4831 101.401 18.4271 101.247 18.3151C101.093 18.2031 100.96 18.0561 100.848 17.8741L100.617 17.4751C100.491 17.6431 100.372 17.8321 100.26 18.0421C100.162 18.2381 100.064 18.4621 99.9661 18.7141C100.274 19.0501 100.526 19.4281 100.722 19.8481C100.918 20.2541 101.016 20.7301 101.016 21.2761C101.016 22.0041 100.82 22.6551 100.428 23.2291C100.05 23.7891 99.5111 24.2301 98.8111 24.5521C98.1251 24.8741 97.2921 25.0351 96.3121 25.0351C95.9761 25.0351 95.6401 25.0141 95.3041 24.9721C94.9821 24.9161 94.7161 24.8531 94.5061 24.7831C94.3101 24.9931 94.1701 25.1751 94.0861 25.3291C94.0021 25.4691 93.9601 25.6231 93.9601 25.7911C93.9601 25.9871 94.0161 26.1481 94.1281 26.2741C94.2401 26.4001 94.4011 26.4911 94.6111 26.5471C94.8351 26.5891 95.1011 26.6101 95.4091 26.6101H98.5591C99.8471 26.6101 100.792 26.8341 101.394 27.2821C102.01 27.7301 102.318 28.4091 102.318 29.3191C102.318 29.7531 102.248 30.1591 102.108 30.5371C101.968 30.9291 101.751 31.2931 101.457 31.6291C101.163 31.9791 100.771 32.2801 100.281 32.5321C99.8051 32.7841 99.2171 32.9801 98.5171 33.1201C97.8311 33.2601 97.0261 33.3301 96.1021 33.3301ZM96.3751 31.7971C97.0051 31.7971 97.5441 31.7201 97.9921 31.5661C98.4541 31.4121 98.8041 31.1951 99.0421 30.9151C99.2801 30.6351 99.3991 30.3131 99.3991 29.9491C99.3991 29.5711 99.2591 29.2841 98.9791 29.0881C98.7131 28.9061 98.3071 28.8151 97.7611 28.8151H94.5061C94.2541 29.0111 94.0581 29.2351 93.9181 29.4871C93.7781 29.7531 93.7081 30.0331 93.7081 30.3271C93.7081 30.8451 93.9181 31.2161 94.3381 31.4401C94.7721 31.6781 95.4511 31.7971 96.3751 31.7971ZM96.2911 23.5231C96.9071 23.5231 97.3761 23.3341 97.6981 22.9561C98.0201 22.5641 98.1811 22.0111 98.1811 21.2971C98.1811 20.5131 98.0061 19.9181 97.6561 19.5121C97.3201 19.1061 96.8301 18.9031 96.1861 18.9031C95.5561 18.9031 95.0941 19.1131 94.8001 19.5331C94.5061 19.9391 94.3591 20.5061 94.3591 21.2341C94.3591 21.9341 94.5271 22.4941 94.8631 22.9141C95.1991 23.3201 95.6751 23.5231 96.2911 23.5231Z" fill="white"/>
<path d="M109.427 28.7941C108.307 28.7941 107.348 28.5701 106.55 28.1221C105.766 27.6741 105.164 27.0441 104.744 26.2321C104.324 25.4061 104.114 24.4471 104.114 23.3551C104.114 22.1371 104.345 21.0941 104.807 20.2261C105.283 19.3441 105.934 18.6721 106.76 18.2101C107.586 17.7341 108.545 17.4961 109.637 17.4961C110.491 17.4961 111.24 17.6501 111.884 17.9581C112.528 18.2661 113.025 18.7141 113.375 19.3021C113.725 19.8901 113.9 20.5901 113.9 21.4021C113.9 21.7241 113.879 22.0601 113.837 22.4101C113.795 22.7601 113.732 23.1101 113.648 23.4601H107.054C107.082 24.1461 107.222 24.7411 107.474 25.2451C107.74 25.7351 108.097 26.1061 108.545 26.3581C108.993 26.6101 109.511 26.7361 110.099 26.7361C110.701 26.7361 111.254 26.6311 111.758 26.4211C112.262 26.2111 112.731 25.9171 113.165 25.5391L114.047 26.5261C113.529 27.2121 112.864 27.7651 112.052 28.1851C111.254 28.5911 110.379 28.7941 109.427 28.7941ZM107.054 22.0111H111.128C111.156 21.8571 111.17 21.7031 111.17 21.5491C111.184 21.3811 111.191 21.2061 111.191 21.0241C111.191 20.3381 111.044 19.8131 110.75 19.4491C110.456 19.0851 110.015 18.9031 109.427 18.9031C108.951 18.9031 108.545 19.0291 108.209 19.2811C107.873 19.5191 107.607 19.8691 107.411 20.3311C107.229 20.7931 107.11 21.3531 107.054 22.0111Z" fill="white"/>
<path d="M120.645 28.7941C119.959 28.7941 119.385 28.6821 118.923 28.4581C118.461 28.2201 118.111 27.8631 117.873 27.3871C117.649 26.9111 117.537 26.3091 117.537 25.5811V19.4071H115.962V18.0421C116.536 17.9721 116.991 17.8041 117.327 17.5381C117.677 17.2581 117.943 16.8591 118.125 16.3411C118.307 15.8091 118.433 15.1301 118.503 14.3041L119.994 14.1151L120.33 14.2831V17.7901H123.417V19.4071H120.33V25.1821C120.33 25.7281 120.428 26.1411 120.624 26.4211C120.834 26.7011 121.184 26.8411 121.674 26.8411C121.996 26.8411 122.304 26.7921 122.598 26.6941C122.906 26.5821 123.214 26.4281 123.522 26.2321L124.131 27.2821C123.683 27.7441 123.165 28.1151 122.577 28.3951C121.989 28.6611 121.345 28.7941 120.645 28.7941Z" fill="white"/>
<path d="M131.208 28.5001V27.2191L132.195 27.0511C132.489 26.9951 132.671 26.8971 132.741 26.7571C132.811 26.6031 132.853 26.3721 132.867 26.0641L133.455 16.1731C133.483 15.8371 133.448 15.6061 133.35 15.4801C133.266 15.3541 133.084 15.2701 132.804 15.2281L131.796 15.0811V13.7791H137.13L140.511 23.1661L140.595 23.0401L144.186 13.7791H149.31V15.0811L148.197 15.2281C147.973 15.2561 147.812 15.3331 147.714 15.4591C147.616 15.5711 147.581 15.8231 147.609 16.2151L148.218 26.0431C148.232 26.3931 148.281 26.6381 148.365 26.7781C148.449 26.9041 148.631 26.9881 148.911 27.0301L149.961 27.1981V28.5001H143.556V27.1981L144.774 27.0301C145.012 26.9881 145.173 26.9041 145.257 26.7781C145.341 26.6521 145.369 26.4141 145.341 26.0641L144.753 16.7401L144.732 16.6141L141.057 26.1271H138.936L135.303 16.6141L135.282 16.7191L134.736 26.0431C134.722 26.3231 134.736 26.5471 134.778 26.7151C134.834 26.8691 135.037 26.9741 135.387 27.0301L136.479 27.1981V28.5001H131.208Z" fill="white"/>
<path d="M157.679 28.7941C156.559 28.7941 155.6 28.5701 154.802 28.1221C154.018 27.6741 153.416 27.0441 152.996 26.2321C152.576 25.4061 152.366 24.4471 152.366 23.3551C152.366 22.1371 152.597 21.0941 153.059 20.2261C153.535 19.3441 154.186 18.6721 155.012 18.2101C155.838 17.7341 156.797 17.4961 157.889 17.4961C158.743 17.4961 159.492 17.6501 160.136 17.9581C160.78 18.2661 161.277 18.7141 161.627 19.3021C161.977 19.8901 162.152 20.5901 162.152 21.4021C162.152 21.7241 162.131 22.0601 162.089 22.4101C162.047 22.7601 161.984 23.1101 161.9 23.4601H155.306C155.334 24.1461 155.474 24.7411 155.726 25.2451C155.992 25.7351 156.349 26.1061 156.797 26.3581C157.245 26.6101 157.763 26.7361 158.351 26.7361C158.953 26.7361 159.506 26.6311 160.01 26.4211C160.514 26.2111 160.983 25.9171 161.417 25.5391L162.299 26.5261C161.781 27.2121 161.116 27.7651 160.304 28.1851C159.506 28.5911 158.631 28.7941 157.679 28.7941ZM155.306 22.0111H159.38C159.408 21.8571 159.422 21.7031 159.422 21.5491C159.436 21.3811 159.443 21.2061 159.443 21.0241C159.443 20.3381 159.296 19.8131 159.002 19.4491C158.708 19.0851 158.267 18.9031 157.679 18.9031C157.203 18.9031 156.797 19.0291 156.461 19.2811C156.125 19.5191 155.859 19.8691 155.663 20.3311C155.481 20.7931 155.362 21.3531 155.306 22.0111Z" fill="white"/>
<path d="M170.028 28.5001V27.1981L171.057 27.0301C171.309 26.9881 171.477 26.8971 171.561 26.7571C171.659 26.6171 171.708 26.3511 171.708 25.9591V16.2361C171.708 15.8721 171.659 15.6271 171.561 15.5011C171.477 15.3611 171.295 15.2701 171.015 15.2281L170.028 15.0811V13.7791H175.11L181.662 24.8251L181.683 24.7201V16.2361C181.683 15.8861 181.634 15.6481 181.536 15.5221C181.452 15.3821 181.27 15.2911 180.99 15.2491L180.024 15.0811V13.7791H185.337V15.0811L184.329 15.2281C184.063 15.2701 183.888 15.3611 183.804 15.5011C183.72 15.6411 183.678 15.9071 183.678 16.2991V28.5001H180.633L173.724 17.1181L173.703 17.2231V26.0431C173.703 26.4071 173.745 26.6521 173.829 26.7781C173.927 26.9041 174.109 26.9881 174.375 27.0301L175.362 27.1981V28.5001H170.028Z" fill="white"/>
<path d="M192.666 28.7941C191.532 28.7941 190.559 28.5771 189.747 28.1431C188.935 27.7091 188.312 27.0931 187.878 26.2951C187.444 25.4831 187.227 24.5031 187.227 23.3551C187.227 22.0951 187.465 21.0311 187.941 20.1631C188.417 19.2811 189.089 18.6161 189.957 18.1681C190.825 17.7201 191.847 17.4961 193.023 17.4961C194.087 17.4961 195.011 17.7061 195.795 18.1261C196.593 18.5321 197.209 19.1341 197.643 19.9321C198.091 20.7301 198.315 21.7171 198.315 22.8931C198.315 24.1111 198.084 25.1681 197.622 26.0641C197.174 26.9461 196.53 27.6251 195.69 28.1011C194.85 28.5631 193.842 28.7941 192.666 28.7941ZM192.96 27.1771C193.506 27.1771 193.954 27.0371 194.304 26.7571C194.654 26.4771 194.913 26.0501 195.081 25.4761C195.263 24.8881 195.354 24.1811 195.354 23.3551C195.354 22.6271 195.291 21.9971 195.165 21.4651C195.039 20.9191 194.857 20.4711 194.619 20.1211C194.395 19.7571 194.115 19.4911 193.779 19.3231C193.457 19.1411 193.093 19.0501 192.687 19.0501C192.155 19.0501 191.707 19.1831 191.343 19.4491C190.979 19.7011 190.699 20.1001 190.503 20.6461C190.307 21.1781 190.209 21.8641 190.209 22.7041C190.209 23.6701 190.314 24.4891 190.524 25.1611C190.734 25.8191 191.042 26.3231 191.448 26.6731C191.854 27.0091 192.358 27.1771 192.96 27.1771Z" fill="white"/>
<path d="M205.07 28.7941C204.384 28.7941 203.81 28.6821 203.348 28.4581C202.886 28.2201 202.536 27.8631 202.298 27.3871C202.074 26.9111 201.962 26.3091 201.962 25.5811V19.4071H200.387V18.0421C200.961 17.9721 201.416 17.8041 201.752 17.5381C202.102 17.2581 202.368 16.8591 202.55 16.3411C202.732 15.8091 202.858 15.1301 202.928 14.3041L204.419 14.1151L204.755 14.2831V17.7901H207.842V19.4071H204.755V25.1821C204.755 25.7281 204.853 26.1411 205.049 26.4211C205.259 26.7011 205.609 26.8411 206.099 26.8411C206.421 26.8411 206.729 26.7921 207.023 26.6941C207.331 26.5821 207.639 26.4281 207.947 26.2321L208.556 27.2821C208.108 27.7441 207.59 28.1151 207.002 28.3951C206.414 28.6611 205.77 28.7941 205.07 28.7941Z" fill="white"/>
<path fill-rule="evenodd" clip-rule="evenodd" d="M17.303 8.07126C17.303 8.07126 12.4265 5.41132 11.9832 8.51458C11.2865 13.3911 17.7463 14.2778 17.7463 14.2778C17.7463 14.2778 17.303 16.4944 19.963 17.8243C28.541 22.1133 25.2828 15.1644 25.2828 15.1644C25.2828 15.1644 29.2727 20.4843 32.376 17.8243C39.1706 16.975 29.2868 12.4646 28.4428 12.0864C28.4824 12.0682 28.5198 12.048 28.5546 12.0257C29.7562 11.7654 36.85 10.1049 32.376 8.07126C31.9326 4.52468 25.2828 7.18461 25.2828 7.18461L24.8395 9.40122C24.8395 9.40122 25.9246 9.35486 26.1695 9.84454C26.3243 10.1542 26.1695 10.7312 26.1695 10.7312C26.1695 10.7312 29.0002 10.5363 28.8294 11.6178C28.8006 11.8 28.7004 11.9319 28.5546 12.0257C28.4465 12.0491 28.3861 12.0612 28.3861 12.0612C28.3861 12.0612 28.4057 12.0698 28.4428 12.0864C27.7 12.4272 26.1695 12.0612 26.1695 12.0612C26.1695 12.0612 26.9438 15.0384 25.7261 15.1644C24.752 15.2652 23.9528 13.3911 23.9528 13.3911C23.9528 13.3911 23.533 14.1298 23.0662 14.2778C22.241 14.5394 21.2929 12.9478 21.2929 12.9478C21.2929 12.9478 19.9934 13.0384 19.5196 12.5045C18.7929 11.6855 20.4063 9.84454 20.4063 9.84454C20.4063 9.84454 18.3625 8.34176 19.0763 7.62793C19.7901 6.91411 21.2929 8.9579 21.2929 8.9579C21.2929 8.9579 21.6994 8.16729 22.1796 8.07126C22.7917 7.94884 23.5095 8.9579 23.5095 8.9579L25.171 6.63936C24.7928 4.94044 23.4381 -0.0577035 20.8496 1.42143C14.6431 -0.795185 17.303 8.07126 17.303 8.07126Z" fill="#B5D2FF"/>
<path d="M25.171 6.63936L23.5095 8.9579C23.5095 8.9579 22.7917 7.94884 22.1796 8.07126C21.6994 8.16729 21.2929 8.9579 21.2929 8.9579C21.2929 8.9579 19.7901 6.91411 19.0763 7.62793C18.3625 8.34176 20.4063 9.84454 20.4063 9.84454C20.4063 9.84454 18.7929 11.6855 19.5196 12.5045C19.9934 13.0384 21.2929 12.9478 21.2929 12.9478C21.2929 12.9478 22.241 14.5394 23.0662 14.2778C23.533 14.1298 23.9528 13.3911 23.9528 13.3911C23.9528 13.3911 24.752 15.2652 25.7261 15.1644C26.9438 15.0384 26.1695 12.0612 26.1695 12.0612C26.1695 12.0612 27.7 12.4272 28.4428 12.0864C28.4057 12.0698 28.3861 12.0612 28.3861 12.0612C28.3861 12.0612 28.4465 12.0491 28.5546 12.0257C28.7004 11.9319 28.8006 11.8 28.8294 11.6178C29.0002 10.5363 26.1695 10.7312 26.1695 10.7312C26.1695 10.7312 26.3243 10.1542 26.1695 9.84454C25.9246 9.35486 24.8395 9.40122 24.8395 9.40122L25.2828 7.18461C25.2828 7.18461 25.2461 6.97665 25.171 6.63936Z" fill="#F7E328"/>
<path d="M6.15466 3.58662C6.21583 3.04596 6.36943 2.35838 6.7507 1.99326C7.19195 1.57072 8.16989 1.3581 8.16989 1.3581C8.16989 1.3581 8.47673 0.323459 9.01576 0.0616092C9.61431 -0.229147 10.2215 0.567821 10.6011 1.22659C10.5496 1.22734 10.498 1.22939 10.4463 1.23278C9.83124 1.27312 9.48471 1.70235 9.31839 2.06362C9.15836 2.41122 9.10022 2.81213 9.07741 3.13585C9.06875 3.25886 9.06462 3.3804 9.06362 3.49664C8.93297 3.48497 8.79192 3.4741 8.64287 3.46509C7.94071 3.42264 7.01506 3.4181 6.15466 3.58662Z" fill="#B5D2FF"/>
<path d="M1.1813 9.69391C0.624066 10.0793 -0.0808344 10.7044 0.00755822 11.3562C0.134806 12.2944 1.72387 11.9447 2.7138 11.6306C2.14649 11.0643 1.55416 10.3837 1.1813 9.69391Z" fill="#B5D2FF"/>
<path d="M8.86457 22.322L9.73004 27.1619C9.73004 27.1619 9.40444 26.8068 8.93431 26.441C7.95706 25.6805 6.35533 24.8735 5.75543 27.1123C4.08563 28.4264 7.19312 31.8099 8.01503 32.6536L8.01881 32.6574L8.02304 32.6618C8.13868 32.7803 8.2069 32.8463 8.2069 32.8463C8.2069 32.8463 8.01751 33.2503 7.83617 33.8398C7.38198 35.3163 6.97835 37.9572 9.72819 38.3311C11.5459 40.8491 13.2377 38.2561 13.2377 38.2561C13.2377 38.2561 14.0411 42.386 15.7318 41.9706C16.2504 41.8432 16.9158 41.2725 16.9158 41.2725C16.9158 41.2725 18.1592 41.5294 18.9031 41.2973C20.8397 40.6931 18.8669 36.9394 18.0001 35.4618C17.9803 35.4648 17.9606 35.4677 17.941 35.4705C17.9348 35.4713 17.9285 35.4722 17.9223 35.4731C17.4013 35.5437 16.8483 35.5199 16.3472 35.287C15.8244 35.044 15.44 34.6114 15.2142 34.0257C14.9061 33.2263 14.9232 32.2122 14.985 31.4891C15.0147 31.1425 15.0577 30.8323 15.0956 30.5975C15.0268 30.5342 14.9534 30.4619 14.8794 30.3811C14.8794 30.3811 14.8795 30.3811 14.8794 30.3811C14.5895 30.0641 14.2016 29.5175 14.2016 28.8088C14.2016 28.4819 14.2833 28.1899 14.4132 27.9324C14.4583 26.9796 14.4592 24.8276 13.663 23.6463C13.0691 22.7653 11.8079 22.092 10.8898 21.6931C10.5902 21.8067 10.3087 21.9065 10.0442 21.9933C9.62158 22.1319 9.24014 22.2382 8.89591 22.315L8.86457 22.322Z" fill="#B5D2FF"/>
<path d="M20.4272 30.0282C19.3717 26.5753 16.8707 27.1336 15.4378 27.7994C15.1419 28.0891 14.9516 28.4247 14.9516 28.8088C14.9516 29.6728 15.914 30.2929 15.914 30.2929C15.914 30.2929 15.4295 32.4987 15.914 33.7559C16.2614 34.6574 17.031 34.8742 17.9752 34.7057C18.8846 34.2379 21.2528 32.7291 20.4272 30.0282Z" fill="#B5D2FF"/>
<path d="M15.0507 6.4147C14.9682 5.94322 14.8375 5.49674 14.6386 5.12227C13.7822 3.50976 12.3658 2.19325 10.9887 2.00059C10.8233 1.97746 10.6585 1.97053 10.4954 1.98123C9.55545 2.04288 9.86073 4.34975 9.86073 4.34975C9.86073 4.34975 7.74068 3.98316 6.11607 4.36181C5.82041 4.43071 5.54117 4.5243 5.29409 4.64927C4.44832 5.07707 3.39109 6.17023 3.39109 6.17023C3.39109 6.17023 2.64834 6.95948 2.08012 7.3421C1.36862 7.82119 1.42156 8.54318 1.82338 9.30416C2.19388 10.0058 2.861 10.7407 3.49896 11.3488C4.33641 12.1471 5.12361 12.727 5.12361 12.727C5.12361 12.727 1.84004 12.6919 1.23331 14.2232C0.9425 14.9571 1.19069 16.2426 1.19069 16.2426C1.19069 16.2426 0.50882 16.7667 0.344796 17.5391C-0.212145 20.1618 6.72919 19.7575 6.72919 19.7575C6.72919 19.7575 5.30532 22.3485 8.73245 21.5831C9.04881 21.5125 9.4065 21.4132 9.81046 21.2807C10.1458 21.1707 10.5131 21.0377 10.915 20.8791C12.6489 20.1951 13.9178 17.1143 13.9178 17.1143C13.9178 17.1143 15.0051 15.8931 15.8031 14.5596C15.3185 14.3944 14.779 14.1742 14.2451 13.8837C13.4154 13.4324 12.5615 12.7908 11.9639 11.8857C11.3549 10.9633 11.0407 9.80874 11.2407 8.40857C11.3109 7.91698 11.4768 7.48887 11.7487 7.14195C12.0225 6.7927 12.3727 6.5654 12.7474 6.43052C13.4666 6.17159 14.2861 6.248 14.9687 6.39637C14.9961 6.40233 15.0234 6.40844 15.0507 6.4147Z" fill="#B5D2FF"/>
<path d="M11.1839 9.04189C10.7026 8.45834 10.0839 7.89709 9.77546 8.38863C9.4541 8.90082 9.85976 9.93437 9.85976 9.93437C9.85976 9.93437 9.14042 9.90039 8.80265 10.1588C8.17982 10.6354 8.76003 12.1783 8.76003 12.1783C8.76003 12.1783 6.8998 11.2557 6.30763 12.0289C5.59687 12.9569 8.40782 14.1148 8.40782 14.1148C8.40782 14.1148 5.6797 14.8727 6.34931 15.594C6.92437 16.2135 8.46355 15.1451 8.46355 15.1451C8.46355 15.1451 7.39468 16.5349 7.95583 17.0399C8.55102 17.5756 9.7319 15.9927 9.7319 15.9927C9.7319 15.9927 9.76843 17.8605 10.6195 18.2614C11.8586 18.845 12.4382 15.1947 12.4382 15.1947C12.4382 15.1947 14.2153 14.696 14.3619 13.9461C14.3229 13.9257 14.284 13.9049 14.2451 13.8837C13.4154 13.4324 12.5615 12.7908 11.9638 11.8857C11.4493 11.1063 11.1451 10.161 11.1839 9.04189Z" fill="#F7E328"/>
<path d="M9.98296 31.7991L8.01502 32.6536L8.02302 32.6618C8.13867 32.7803 8.20689 32.8464 8.20689 32.8464C8.20689 32.8464 8.01749 33.2503 7.83616 33.8398L10.6593 32.9958C10.6593 32.9958 9.85891 34.8511 10.6167 35.0152C11.1365 35.1278 11.8007 34.317 11.8007 34.317C11.8007 34.317 11.0391 37.1593 11.9693 37.4085C12.8995 37.6578 13.169 34.6837 13.169 34.6837C13.169 34.6837 14.4125 35.9679 14.9294 35.6631C15.4464 35.3583 14.8451 34.1174 14.8451 34.1174C14.8451 34.1174 15.1073 34.319 15.4491 34.494C15.3579 34.3513 15.2794 34.1948 15.2142 34.0256C14.9061 33.2263 14.9233 32.2122 14.9851 31.4891C15.0147 31.1425 15.0577 30.8322 15.0957 30.5975C15.0268 30.5342 14.9534 30.4619 14.8794 30.3811C14.8024 30.2969 14.7185 30.1964 14.6368 30.0811C14.5184 29.9957 14.4383 29.9466 14.4383 29.9466L14.4725 29.8191C14.3188 29.5388 14.2017 29.1983 14.2017 28.8088C14.2017 28.7018 14.2104 28.5986 14.2267 28.4991L13.1969 29.1063C13.1969 29.1063 13.049 27.9719 12.5206 27.9096C11.9298 27.84 11.6747 29.2061 11.6747 29.2061L9.73003 27.1619C9.73003 27.1619 9.40443 26.8068 8.93429 26.441L10.4907 29.9043C10.4907 29.9043 9.92973 29.5767 9.56048 29.6551C8.73482 29.8304 9.98296 31.7991 9.98296 31.7991Z" fill="#F7E328"/>
<path d="M16.7055 34.6159C17.2098 34.2128 16.3485 33.4729 15.7426 33.0389C15.776 33.2952 15.8307 33.5396 15.914 33.7559C16.0839 34.1967 16.3547 34.4738 16.6975 34.6222L16.7055 34.6159Z" fill="#F7E328"/>
<path d="M17.6558 16.8428C17.5529 16.8655 17.4533 16.8963 17.3576 16.9357C16.418 17.3221 16.3952 19.4092 16.3952 19.4092C16.3952 19.4092 15.4074 19.8832 14.9516 20.3987C13.1286 22.4604 18.8011 26.3352 18.8011 26.3352C18.8011 26.3352 14.9516 27.0808 14.9516 28.8088C14.9516 29.6728 15.914 30.2929 15.914 30.2929C15.914 30.2929 15.4295 32.4987 15.914 33.7559C17.2274 37.1639 24.5754 30.7877 24.5754 30.7877C24.5754 30.7877 24.4375 32.339 26.019 32.7665C27.7556 33.2359 31.7483 32.0591 32.7556 31.2824C34.437 29.9859 30.7083 26.65 30.3735 26.356L30.3923 26.3473C30.7945 26.4587 33.9453 27.2856 35.6428 26.3352C37.5674 25.2577 38.5299 23.6412 38.5299 21.3881C38.5299 19.4092 30.8309 21.8828 30.8309 21.8828C30.8309 21.8828 31.8361 20.3015 32.3624 18.7642C31.5471 19.2753 30.6799 19.4007 29.8444 19.2722C28.8694 19.1222 27.9675 18.6334 27.2274 18.1005C27.0223 17.9528 26.8258 17.7989 26.6394 17.6435C26.6363 17.851 26.6162 18.0586 26.5729 18.2601C26.4837 18.6757 26.288 19.1038 25.9073 19.4341C25.577 19.7206 25.1613 19.8869 24.6833 19.9467C24.611 20.2283 24.5756 20.3977 24.5754 20.3987C24.5754 20.3987 24.3945 20.2313 24.0853 19.9686C23.0102 19.924 21.5639 19.4633 19.6275 18.4952C18.6837 18.0232 18.06 17.4378 17.6558 16.8428Z" fill="#B5D2FF"/>
<path d="M24.913 19.1359C25.0244 19.1025 25.1244 19.0599 25.2138 19.0095C25.9299 18.6053 25.9692 17.6923 25.8191 16.8574C25.4169 17.6417 25.1172 18.4749 24.913 19.1359Z" fill="#B5D2FF"/>
<path d="M26.1894 16.2017C26.2922 16.3075 26.4023 16.4173 26.519 16.5292C27.8409 17.7962 30.0073 19.3231 31.9323 18.1483C32.0818 18.0571 32.2299 17.9495 32.376 17.8243C32.4603 17.8138 32.5421 17.8027 32.6214 17.791C32.7778 16.8899 32.6224 16.1429 31.7933 15.9462C31.244 15.8159 30.8309 15.4515 30.8309 15.4515C30.8309 15.4515 30.0388 14.6535 29.3873 14.4621C28.0109 14.0578 26.9559 14.9752 26.1894 16.2017Z" fill="#B5D2FF"/>
<path d="M21.3614 17.9749C21.9037 18.3044 22.4217 18.6653 22.8774 19.0057C22.3339 18.8568 21.6985 18.6256 20.9574 18.2956L21.3614 17.9749Z" fill="#B5D2FF"/>
<path d="M23.9035 19.9574L24.0943 22.8722C24.0943 22.8722 21.6125 21.2787 21.2071 22.3774C20.8301 23.3993 23.1319 24.3563 23.1319 24.3563C23.1319 24.3563 20.423 23.6902 20.2448 24.851C20.0594 26.0579 23.1319 25.8404 23.1319 25.8404C23.1319 25.8404 21.2079 26.9891 21.6883 27.8193C22.1782 28.6659 24.0943 27.3246 24.0943 27.3246C24.0943 27.3246 23.9111 28.8936 24.5755 29.3034C25.487 29.8657 26.5002 27.3246 26.5002 27.3246C26.5002 27.3246 27.0057 29.357 27.9438 29.3034C29.0695 29.2391 27.9438 26.3351 27.9438 26.3351C27.9438 26.3351 29.5472 26.7317 30.3735 26.3559L30.3497 26.3352L30.3923 26.3472C30.6119 26.2427 30.7736 26.0814 30.8309 25.8404C31.0833 24.7788 28.9062 23.8616 28.9062 23.8616C28.9062 23.8616 31.5976 21.0766 30.3497 20.8933C29.4196 20.7567 28.425 22.3774 28.425 22.3774C28.425 22.3774 27.9838 21.4952 27.4626 21.388C26.7982 21.2514 26.019 22.3774 26.019 22.3774L24.5754 20.3986C24.5754 20.3986 24.3946 20.2312 24.0855 19.9686C24.026 19.9662 23.9653 19.9624 23.9035 19.9574Z" fill="#F7E328"/>
</svg>
